<?xml version="1.0" encoding="UTF-8"?>
<!-- Generator: Adobe Illustrator 27.8.0, SVG Export Plug-In . SVG Version: 6.00 Build 0)  -->
<svg version="1.1" id="Calque_1" xmlns="http://www.w3.org/2000/svg" xmlns:xlink="http://www.w3.org/1999/xlink" x="0px" y="0px" viewBox="0 0 1314.2 461.6" style="enable-background:new 0 0 1314.2 461.6;" xml:space="preserve">
<style type="text/css">
	.st0{fill:#E1003C;}
</style>
<g>
	<path class="st0" d="M165.1,431.5v-44.9c0-16.2-9.5-23.6-25-23.6c-13.9,0-23,8-25.1,19.7l9.3,2.6c1.9-8.8,7.3-13.2,16.2-13.2   c9.4,0,13.9,4.3,13.9,9.9c-0.5,4-1.9,5.9-7.3,8c-3.9,1.4-5.8,1.9-11.8,3.4c-16.2,4.1-22.4,9.8-22.4,20.9c0,10.9,7.8,19,22.5,19   c10.6,0,17.8-4.8,20.4-9.2h0.3v7.3H165.1L165.1,431.5z M137.7,401.4c10.2-2.9,16-5.5,17.1-7.9h0.3v16.6c0,7.9-6.8,14.1-18.8,14.1   c-8.8,0-13.2-3.5-13.2-10.4C123,407.8,126.2,404.6,137.7,401.4L137.7,401.4z M225.7,406c-0.6,4.9-2.5,9.2-5.7,12.8   c-3.1,3.5-7.2,5.3-12.1,5.3c-12.6,0-20.2-9.8-20.2-25.9c0-16.2,8-25.9,20.1-25.9c10.1,0,15.6,7.2,17.6,17.1l9.7-2   c-1.1-7.2-4.1-13.1-9.2-17.6c-4.9-4.5-10.9-6.8-18.1-6.8c-8.7,0-15.8,3.1-21.6,9.5c-5.8,6.3-8.7,14.8-8.7,25.6   c0,10.9,2.8,19.6,8.4,25.9c5.7,6.2,12.9,9.3,21.9,9.3c14.7,0,25.6-9.9,27.8-25.4L225.7,406L225.7,406z M251.2,412.1   c0,12.9,5.3,19.4,17.8,19.4h5.5v-9.9h-5c-6.5,0-8.2-2.8-8.2-10.7V374h16.3v-9.2h-16.5v-16.3h-9.8v16.3H242v9.2h9.3V412.1   L251.2,412.1z M290.3,408.2c0,16.7,8.8,25.1,23.5,25.1c3.6,0,6.9-0.8,9.9-2.3c3.1-1.6,5-2.9,5.9-3.8c0.9-0.9,1.5-1.6,1.9-2.3h0.2   v6.4h10.1v-66.6h-10.2v41.3c0,11.1-5.5,17.6-15.6,17.6c-11.1,0-15.5-4.6-15.5-17.1v-41.8h-10.3V408.2L290.3,408.2z M407.8,431.5   v-44.9c0-16.2-9.5-23.6-25-23.6c-13.9,0-23,8-25.1,19.7l9.3,2.6c1.9-8.8,7.3-13.2,16.2-13.2c9.4,0,13.9,4.3,13.9,9.9   c-0.5,4-1.9,5.9-7.3,8c-3.9,1.4-5.8,1.9-11.8,3.4c-16.2,4.1-22.4,9.8-22.4,20.9c0,10.9,7.8,19,22.5,19c10.6,0,17.8-4.8,20.4-9.2   h0.3v7.3H407.8L407.8,431.5z M380.4,401.4c10.2-2.9,16-5.5,17.1-7.9h0.2v16.6c0,7.9-6.8,14.1-18.8,14.1c-8.8,0-13.2-3.5-13.2-10.4   C365.7,407.8,369,404.6,380.4,401.4L380.4,401.4z M435.2,431.5v-91.7h-10.4v91.7H435.2L435.2,431.5z M524.9,409.4   c0,3.9-1.6,7.4-4.9,10.3c-3.3,2.9-7.3,4.4-12.2,4.4c-13.2,0-20.2-9.4-20.2-25.9c0-16.5,7-25.9,20.2-25.9c5.2,0,9.3,1.8,12.4,5.1   c3.1,3.4,4.6,7.2,4.6,11.3V409.4L524.9,409.4z M535.2,431.5v-91.7h-10.3v31.5h-0.2c-4.6-5.5-10.8-8.3-18.5-8.3   c-8.3,0-15.2,3.3-20.7,9.7c-5.4,6.4-8.2,14.8-8.2,25.5c0,10.7,2.6,19.2,7.8,25.6c5.3,6.4,12.3,9.5,21.1,9.5c8.9,0,16-4.1,19.5-8.3   h0.3v6.4H535.2L535.2,431.5z M564.5,431.5v-66.6h-10.3v66.6H564.5L564.5,431.5z M565.3,351.4v-11.7h-11.8v11.7H565.3L565.3,351.4z    M584.1,443.5c3.6,10.9,12.8,18.1,26.4,18.1c16.7,0,26.8-10.2,26.8-29.1v-67.6h-10.1v6.4h-0.3c-4.4-5.5-10.7-8.3-18.7-8.3   c-8.3,0-15.2,3.3-20.9,9.7c-5.5,6.4-8.3,14.8-8.3,25.5c0,10.7,2.6,19.2,8,25.6s12.4,9.5,21.2,9.5c7.9,0,14.1-2.5,18.5-7.7h0.3v8.9   c0,11.2-6.2,17.8-16.8,17.8c-9.7,0-14.5-5.2-17.5-13.3L584.1,443.5L584.1,443.5z M627.1,409.6c0,3.9-1.6,7.3-4.9,10.2   c-3.3,2.9-7.4,4.3-12.3,4.3c-13.2,0-20.5-9.4-20.5-25.9c0-16.2,7.4-25.9,20.5-25.9c5.2,0,9.3,1.6,12.4,5c3.1,3.4,4.8,7,4.8,11.2   V409.6L627.1,409.6z M665.9,431.5v-66.6h-10.3v66.6H665.9L665.9,431.5z M666.7,351.4v-11.7h-11.8v11.7H666.7L666.7,351.4z    M687.3,412.1c0,12.9,5.3,19.4,17.8,19.4h5.5v-9.9h-5c-6.5,0-8.2-2.8-8.2-10.7V374h16.3v-9.2h-16.5v-16.3h-9.8v16.3H678v9.2h9.3   V412.1L687.3,412.1z M773.5,431.5v-44.9c0-16.2-9.5-23.6-25-23.6c-13.9,0-23,8-25.1,19.7l9.3,2.6c1.9-8.8,7.3-13.2,16.2-13.2   c9.4,0,13.9,4.3,13.9,9.9c-0.5,4-1.9,5.9-7.3,8c-3.9,1.4-5.8,1.9-11.8,3.4c-16.2,4.1-22.4,9.8-22.4,20.9c0,10.9,7.8,19,22.5,19   c10.6,0,17.8-4.8,20.4-9.2h0.2v7.3H773.5L773.5,431.5z M746.1,401.4c10.2-2.9,16-5.5,17.1-7.9h0.3v16.6c0,7.9-6.8,14.1-18.8,14.1   c-8.8,0-13.2-3.5-13.2-10.4C731.4,407.8,734.6,404.6,746.1,401.4L746.1,401.4z M800.8,431.5v-91.7h-10.4v91.7H800.8L800.8,431.5z    M842.3,408.9c1.5,14.4,10.7,24.5,28.3,24.5c8.4,0,14.8-1.9,19-5.8c4.3-3.9,6.4-8.4,6.4-13.7c-0.1-5.4-1.8-9.6-5-12.7   c-3.1-3.1-9-6-17.7-8.4c-8.2-2.4-13.3-4.1-15.6-5.5c-2.3-1.4-3.4-3.4-3.4-6.2c0-5,4.9-9.3,13.6-9.3c8.7,0,14.3,4.3,17,12.7l8.9-2.4   c-2.9-11.6-11.3-19.1-25.9-19.1c-7.2,0-12.8,1.9-17,5.5c-4.1,3.6-6.2,7.9-6.2,12.8c0,9.7,5.9,14.7,22.4,19.2   c7.9,2.1,13.1,4.2,15.5,5.8c2.5,1.6,3.8,4.1,3.8,7.5c0,6.4-5.3,10.6-15.8,10.6c-11.1,0-17.2-5.8-18.5-17.5L842.3,408.9L842.3,408.9   z M952.9,406c-0.6,4.9-2.5,9.2-5.7,12.8c-3.1,3.5-7.2,5.3-12.1,5.3c-12.6,0-20.2-9.8-20.2-25.9c0-16.2,8-25.9,20.1-25.9   c10.1,0,15.6,7.2,17.6,17.1l9.7-2c-1.1-7.2-4.1-13.1-9.2-17.6c-4.9-4.5-10.9-6.8-18.1-6.8c-8.7,0-15.8,3.1-21.6,9.5   c-5.8,6.3-8.7,14.8-8.7,25.6c0,10.9,2.8,19.6,8.4,25.9c5.7,6.2,12.9,9.3,21.9,9.3c14.7,0,25.6-9.9,27.8-25.4L952.9,406L952.9,406z    M986.3,431.5v-41.8c0-10.2,6.9-17.2,17.8-17.2c10.3,0,15.5,6.2,15.5,18.3v40.7h10.3V388c0-16.1-9.7-25-23.9-25   c-8,0-15.8,3.5-19.5,8.5h-0.2v-31.8H976v91.7H986.3L986.3,431.5z M1073.4,424.1c-11.7,0-20.1-9.3-20.1-25.9   c0-16.6,8.4-25.9,20.1-25.9c11.4,0,19.6,9.7,19.6,25.9C1093,414.4,1084.6,424.1,1073.4,424.1L1073.4,424.1z M1073.4,433.3   c8.7,0,15.7-3.1,21.4-9.3c5.7-6.2,8.4-14.8,8.4-25.9c0-10.9-2.9-19.5-8.7-25.8c-5.7-6.3-12.7-9.4-21.1-9.4   c-8.4,0-15.6,3.1-21.5,9.4c-5.9,6.3-8.8,14.8-8.8,25.8c0,11.1,2.9,19.7,8.5,25.9C1057.3,430.2,1064.6,433.3,1073.4,433.3   L1073.4,433.3z M1142.9,424.1c-11.7,0-20.1-9.3-20.1-25.9c0-16.6,8.4-25.9,20.1-25.9c11.4,0,19.6,9.7,19.6,25.9   C1162.5,414.4,1154.1,424.1,1142.9,424.1L1142.9,424.1z M1142.9,433.3c8.7,0,15.7-3.1,21.4-9.3c5.7-6.2,8.4-14.8,8.4-25.9   c0-10.9-2.9-19.5-8.7-25.8c-5.7-6.3-12.7-9.4-21.1-9.4c-8.4,0-15.6,3.1-21.5,9.4c-5.9,6.3-8.8,14.8-8.8,25.8   c0,11.1,2.9,19.7,8.5,25.9C1126.8,430.2,1134.1,433.3,1142.9,433.3L1142.9,433.3z M1196.9,431.5v-91.7h-10.4v91.7H1196.9   L1196.9,431.5z"/>
	<path class="st0" d="M1313,222.5L1313,222.5l-0.8-0.2c-8.1-1.4-8.1-2.8-8.1-25.7v-69.2c0-22.1-14.4-38.8-33.5-38.8   c-7,0-19.3,0-44.6,19.7l-1.4,1.1l0-20.6c0-0.3-0.4-0.5-0.5-0.6c-0.2-0.1-0.4-0.1-0.7-0.1c-0.4,0-0.7,0.1-0.7,0.1l-51.2,19.6   c-0.3,0.2-0.4,0.5-0.4,0.6l0,0l0,0c0,0.4,0.3,0.9,0.4,1.2l6.1,10.5c3.5,5.5,3.5,8.8,3.5,12.6v63.9c0,22.9,0,24.3-8.1,25.7l-1,0.2   l0,0c0,0,0,0,0,0l0,0l0,0c-0.3,0.1-0.8,0.7-0.8,2.4c0,0.4,0.1,1.6,0.6,2.2c0.2,0.2,0.5,0.3,0.9,0.3l59.2,0c0.9,0,1.6-0.2,2-0.7   c0.7-0.7,0.7-1.6,0.7-1.7c0-2.5-1.3-2.7-1.5-2.7l0,0l-0.4-0.1c-8.1-1.4-8.1-2.8-8.1-25.7V116l0.5-0.2c3.2-1.2,7.1-1.8,11.3-1.8   c16.3,0,24.3,14.1,24.3,43.1v39.5c0,22.9,0,24.3-8.1,25.7l-0.5,0.1c-0.1,0-1.4,0.3-1.4,2.7c0,0.1,0.1,2.3,1.7,2.3l0.9,0l59.2,0   c0.5,0,0.8-0.1,1.1-0.4c0.5-0.6,0.6-1.6,0.6-2C1314.2,222.7,1313.1,222.5,1313,222.5L1313,222.5z M210.4,16.8   c2-5.8,5.6-9.7,17.6-10.8l0.1,0l0.1,0c0.1,0,0.1,0,0.2,0c0.1,0,0.1,0,0.2,0c1-0.1,2.1-0.5,2.1-2.9c0-2.9-1.5-2.9-2-2.9   c-0.1,0-0.2,0-0.3,0l-0.9,0.1V0.3h-86.6v0l-0.9,0l-0.1,0c-2.1,0-2.3,2.2-2.3,2.9c0,2.4,1.2,2.8,2.1,2.9c0.1,0,0.1,0,0.2,0   c0.1,0,0.1,0,0.2,0l0.1,0l0.1,0c12,1.1,15.7,4.9,17.6,10.8c2.3,6.4,2.8,42.1,2.9,72.5l0,0.6l-90.9,29.3l0-1.1   c0.1-40,0.4-94,2.9-101.2c1.9-5.8,5.6-9.7,17.5-10.7l0.1,0c0,0,0.1,0,0.2,0c0.1,0,0.1,0,0.2,0c0.9-0.1,2.1-0.4,2.1-2.9   c0-0.7-0.2-2.9-2.3-2.9H2c-0.5,0-2,0-2,2.9C0,5.5,1.1,5.9,2.1,6c12.1,1.1,15.7,4.9,17.6,10.8c2.7,7.8,2.9,59.5,2.9,107.3v8.8   c0,50.5-0.3,70.3-2.9,78c-1.9,5.8-5.6,9.7-17.6,10.7l0,0l-0.1,0c-0.5,0-2,0-2,2.9c0,2.4,1.1,2.8,2.1,2.9l0.1,0l88,0l0.1,0   c2.1,0,2.3-2.2,2.3-2.9c0-1.7-0.8-2.7-2.4-2.9c-12.1-1.1-15.7-4.9-17.6-10.8c-2.7-7.7-2.9-28-2.9-75.9v-0.6l90.9-29.3l0,27.8   c0,50.5-0.3,70.3-2.9,78c-1.9,5.8-5.5,9.6-17.5,10.7l-0.1,0c-0.1,0-0.2,0-0.2,0c-1.6,0.2-2.4,1.1-2.4,2.9c0,0.7,0.2,2.9,2.3,2.9   l0.1,0l0.9,0v0h86.6v-0.1l0.9,0.1c0,0,0.1,0,0.2,0c0.1,0,0.1,0,0.2,0c1-0.1,2.1-0.5,2.1-2.9c0-2.9-1.5-2.9-2-2.9   c-0.1,0-0.2,0-0.3,0l-0.9,0.1v-0.2c-11.5-1.2-15-5-16.9-10.7c-2.7-7.8-2.9-27.5-2.9-78v-8.8C207.5,76.3,207.7,24.6,210.4,16.8   L210.4,16.8z M456.9,222.3L456.9,222.3c-8.1-1.4-8.1-2.8-8.1-25.7V1.9c0-0.2-0.3-0.4-0.3-0.4l0,0c-0.1-0.1-0.3-0.1-0.6-0.1   c-0.3,0-0.6,0.1-0.6,0.1l0,0l-52.7,16.1c-0.5,0.2-0.5,0.8-0.5,0.8l0,0.1c0,0-0.1,0.7,0.3,1.3l7.5,10.6c3.5,5,3.5,8.8,3.5,12.6   v153.7c0,22.9,0,24.3-8.1,25.7c-1.4,0.3-1.9,1-1.9,2.6c0,2.5,1.2,2.5,1.7,2.5h60.1c0.5,0,1.7,0,1.7-2.5   C458.9,223.3,458.3,222.5,456.9,222.3L456.9,222.3z M865.1,88.5c-11.4,0-21.7,6.3-34.5,26.3l-1.5,2.4l0-2.9l0-26.3   c0-0.3-0.3-0.5-0.4-0.5l0,0c-0.2-0.1-0.4-0.1-0.7-0.1c-0.2,0-0.3,0-0.4,0c0,0,0,0,0,0L776,107.7c-0.2,0.1-0.3,0.6-0.3,0.8   c0,0.4,0.3,0.9,0.4,1.1l6.1,10.4c3.5,5.5,3.5,8.8,3.5,12.6v63.9c0,22.9,0,24.3-8.1,25.7l-0.3,0.1l-0.1,0c-0.8,0.2-1.6,0.4-1.6,2.6   v0.1c0,0,0,1.1,0.6,1.8c0.4,0.4,1,0.7,1.9,0.7h66.9c0.5,0,1-0.2,1.3-0.5c0.6-0.7,0.7-1.9,0.7-2.4c0-2.3-1.3-2.6-1.4-2.6l-8.5-0.8   c-7.7-0.6-8.1-1.7-8.1-24.8v-71.5l0.3-0.2c4.2-3.2,7-4.4,10.7-4.4c4.9,0,8.1,2.5,11.6,5.2c3.6,2.8,7.7,6,14,6   c8.2,0,19.6-8,19.6-21.1C885.3,97.1,877.4,88.5,865.1,88.5L865.1,88.5z M306.6,87c-41.7,0-75.6,32.2-75.6,71.8   c0,34.4,28.3,70,75.6,70c41.9,0,75.9-32.2,75.9-71.8C382.5,122.6,354.1,87,306.6,87L306.6,87z M306.6,221.9   c-8.1,0-15-6.5-19.9-18.7c-4.8-12-7.3-28.6-7.3-48c0-39,9.9-61.4,27.2-61.4c16.7,0,27.5,26.2,27.5,66.7   C334.1,200.1,324.3,221.9,306.6,221.9L306.6,221.9z M571.3,87c-19.8,0-36.8,11.7-45.9,19.4l-1.4,1.2V50.8l0-50   c0-0.3-0.2-0.5-0.3-0.5c-0.3-0.1-0.6-0.2-0.9-0.2c-0.4,0-0.7,0.1-0.7,0.1l-52.4,16c-0.6,0.2-0.7,0.6-0.7,0.6l0,0l0,0   c0,0.5,0.3,1,0.4,1.1l7.7,10.9c3.5,5,3.5,8.8,3.5,12.6v122.2c0,15.6-0.4,26.8-0.9,39.9l-0.2,6.2l0.1,0.1   c15.2,12.2,38.9,19.2,64.9,19.2c39.3,0,80-30,80-80.3C624.6,111.7,603.2,87,571.3,87L571.3,87z M547.5,219.3   c-11.6,0-23.4-11.2-23.4-36.3v-69.1l0.6-0.2c3.3-0.8,7.7-1.3,13-1.3c23.8,0,39.9,21.2,39.9,52.8   C577.6,198.6,566.1,219.3,547.5,219.3L547.5,219.3z M1083.5,87c-41.7,0-75.6,32.2-75.6,71.8c0,34.4,28.3,70,75.6,70   c41.9,0,75.9-32.2,75.9-71.8C1159.4,122.6,1131,87,1083.5,87L1083.5,87z M1083.5,221.9c-8.1,0-15-6.5-19.9-18.7   c-4.8-12-7.3-28.6-7.3-48c0-39,9.9-61.4,27.2-61.4c16.7,0,27.5,26.2,27.5,66.7C1110.9,200.1,1101.2,221.9,1083.5,221.9   L1083.5,221.9z M761.8,185.2c-0.4-0.2-0.7-0.3-0.9-0.3c-0.2,0-0.2,0-0.3,0.1l-0.2,0.2c-8,9.4-17.4,13.8-29.6,13.8   c-30,0-48.7-21.7-48.7-56.7c0-1.8,0-3.3,0.2-5l0.1-0.7h63.8c8.8,0,12.9-3.8,12.9-12c0-22.1-19.8-37.6-48.2-37.6   c-34.7,0-72.1,29.4-72.1,76.8c0,38.3,26.5,65,64.4,65c26.2,0,51.1-17.9,59.1-42.6l0.1-0.3C762.5,185.7,762,185.3,761.8,185.2   L761.8,185.2z M683.3,129.3c1.4-8.8,4.3-16.9,8.2-22.8c4.6-6.9,10.4-10.3,16.8-10.5c11.4-0.5,15.7,9.8,15.7,27.1   c0,4.4-2.3,6.6-7.2,6.9l-33.6,0.3L683.3,129.3L683.3,129.3z M997.9,193.8c-0.3,0-0.5,0.1-0.5,0.1c0,0,0,0,0,0l-0.1,0.1   c-9.3,5.4-17.2,6.2-23.8,6.2c-11.7,0-22.5-1.7-22.5-13.6v-84l35.9,0c9.6,0,8.9-8.7,8.9-8.7v-3.9c0-1.3-1.3-1.3-1.3-1.3l-43.4,0   l0-3.7l0-22.2l0-0.1c0-0.4-0.4-0.8-0.5-0.9c-0.3-0.2-0.6-0.3-0.9-0.3c-0.2,0-0.4,0.1-0.4,0.1l0,0l-51.7,21.8   c-0.4,0.1-0.3,0.8-0.3,0.8l0,0v0c0,0.6,0.5,0.9,0.5,1l0.1,0c3.8,2.3,10.1,7.4,10.1,14.9c-0.3,14.9-0.3,63.3-0.3,98.6   c0,17.8,16.1,30.3,39.1,30.3c23.9,0,42.5-17.1,52-33.1l0.1-0.2c0.5-0.8,0-1.3-0.1-1.4C998.5,193.9,998.2,193.8,997.9,193.8   L997.9,193.8z"/>
</g>
</svg>